<?xml version="1.0" encoding="utf-8"?>
<!-- Generator: Adobe Illustrator 17.0.0, SVG Export Plug-In . SVG Version: 6.00 Build 0)  -->
<!DOCTYPE svg PUBLIC "-//W3C//DTD SVG 1.1//EN" "http://www.w3.org/Graphics/SVG/1.1/DTD/svg11.dtd">
<svg version="1.1" id="Layer_1" xmlns="http://www.w3.org/2000/svg" xmlns:xlink="http://www.w3.org/1999/xlink" x="0px" y="0px"
	 width="800px" height="536px" viewBox="0 0 800 536" enable-background="new 0 0 800 536" xml:space="preserve">
<g>
	<g>
		<linearGradient id="SVGID_1_" gradientUnits="userSpaceOnUse" x1="140.7624" y1="260.8632" x2="555.9905" y2="260.8632">
			<stop  offset="0" style="stop-color:#A246C4"/>
			<stop  offset="1" style="stop-color:#5EAFFF"/>
		</linearGradient>
		<rect x="165.978" y="82.041" fill="url(#SVGID_1_)" width="371.496" height="357.644"/>
		<g>
			<linearGradient id="SVGID_2_" gradientUnits="userSpaceOnUse" x1="559.5074" y1="294.2175" x2="630.3776" y2="294.2175">
				<stop  offset="0.0052" style="stop-color:#595959"/>
				<stop  offset="1" style="stop-color:#FFFFFF"/>
			</linearGradient>
			<path fill="url(#SVGID_2_)" d="M626.324,309.132c0,0-20.182-55.453-66.816-40.869c0,0,39.344,6.312,59.523,39.277
				C639.211,340.505,626.324,309.132,626.324,309.132z"/>
			<linearGradient id="SVGID_3_" gradientUnits="userSpaceOnUse" x1="614.3363" y1="294.2175" x2="685.206" y2="294.2175">
				<stop  offset="0.0052" style="stop-color:#595959"/>
				<stop  offset="1" style="stop-color:#FFFFFF"/>
			</linearGradient>
			<path fill="url(#SVGID_3_)" d="M618.391,309.132c0,0,20.179-55.453,66.815-40.869c0,0-39.343,6.312-59.523,39.277
				C605.502,340.505,618.391,309.132,618.391,309.132z"/>
			<linearGradient id="SVGID_4_" gradientUnits="userSpaceOnUse" x1="667.5305" y1="290.1751" x2="706.6343" y2="290.1751">
				<stop  offset="0.0052" style="stop-color:#B3B3B3"/>
				<stop  offset="1" style="stop-color:#FFFFFF"/>
			</linearGradient>
			<path fill="url(#SVGID_4_)" d="M667.53,265.889c0,0,31.642-3.26,1.215,46.739l16.46,1.924
				C685.206,314.553,743.634,263.345,667.53,265.889z"/>
			<linearGradient id="SVGID_5_" gradientUnits="userSpaceOnUse" x1="611.5309" y1="306.1632" x2="631.8675" y2="306.1632">
				<stop  offset="0.0052" style="stop-color:#B3B3B3"/>
				<stop  offset="1" style="stop-color:#FFFFFF"/>
			</linearGradient>
			<path fill="url(#SVGID_5_)" d="M631.867,309.289l-5.542,2.503l-1.489,0.671c0,0-21.822-6.135-9.575-11.384
				c2.941-1.261,5.424-1.442,7.506-0.99C629.351,301.518,631.867,309.289,631.867,309.289z"/>
			<linearGradient id="SVGID_6_" gradientUnits="userSpaceOnUse" x1="611.5309" y1="306.1632" x2="626.326" y2="306.1632">
				<stop  offset="0.0052" style="stop-color:#595959"/>
				<stop  offset="1" style="stop-color:#FFFFFF"/>
			</linearGradient>
			<path fill="url(#SVGID_6_)" d="M626.326,311.792l-1.489,0.671c0,0-21.822-6.135-9.575-11.384c2.941-1.261,5.424-1.442,7.506-0.99
				c0.016,0.004,0.03,0.007,0.042,0.012C622.81,300.101,613.217,303.384,626.326,311.792z"/>
			<linearGradient id="SVGID_7_" gradientUnits="userSpaceOnUse" x1="620.0448" y1="467.6716" x2="620.0448" y2="353.7401">
				<stop  offset="0" style="stop-color:#40D5E6"/>
				<stop  offset="1" style="stop-color:#5577FF"/>
			</linearGradient>
			<rect x="535.065" y="306.189" fill="url(#SVGID_7_)" width="169.959" height="133.496"/>
			<linearGradient id="SVGID_8_" gradientUnits="userSpaceOnUse" x1="529.0368" y1="326.2289" x2="711.0505" y2="326.2289">
				<stop  offset="0" style="stop-color:#40D5E6"/>
				<stop  offset="1" style="stop-color:#5577FF"/>
			</linearGradient>
			<rect x="529.037" y="306.189" fill="url(#SVGID_8_)" width="182.014" height="40.079"/>
			<linearGradient id="SVGID_9_" gradientUnits="userSpaceOnUse" x1="647.701" y1="372.9372" x2="590.5638" y2="372.9372">
				<stop  offset="0.0052" style="stop-color:#B3B3B3"/>
				<stop  offset="1" style="stop-color:#FFFFFF"/>
			</linearGradient>
			<rect x="601.764" y="306.189" fill="url(#SVGID_9_)" width="36.561" height="133.496"/>
		</g>
		<g>
			<linearGradient id="SVGID_10_" gradientUnits="userSpaceOnUse" x1="700.3659" y1="340.0525" x2="728.5868" y2="340.0525">
				<stop  offset="0" style="stop-color:#1F3073"/>
				<stop  offset="1" style="stop-color:#4E6CDE"/>
			</linearGradient>
			<path fill="url(#SVGID_10_)" d="M728.587,350.732c0,0-14.787-5.377-22.952-11.414c-2.425-1.79-4.267-3.642-4.964-5.426
				c-0.608-1.557-0.347-3.065,1.16-4.44c0,0,0.99-0.404,3.492,0.635c3.711,1.542,10.75,6.251,22.825,20.14
				C728.294,350.392,728.44,350.562,728.587,350.732z"/>
			<linearGradient id="SVGID_11_" gradientUnits="userSpaceOnUse" x1="686.5512" y1="343.5029" x2="728.5868" y2="343.5029">
				<stop  offset="0" style="stop-color:#7C3596"/>
				<stop  offset="1" style="stop-color:#3098FF"/>
			</linearGradient>
			<path fill="url(#SVGID_11_)" d="M728.587,350.732l-0.841,4.123c0,0-29.522,7.374-38.899-2.25
				c-0.138-0.139-0.271-0.283-0.396-0.428c-0.816-0.938-1.344-1.914-1.629-2.904c-2.649-9.132,15.009-19.822,15.009-19.822
				c-0.403,0.514-0.296,1.225,0.199,2.08c0.48,0.824,1.323,1.782,2.421,2.817C711.402,340.92,728.587,350.732,728.587,350.732z"/>
			<linearGradient id="SVGID_12_" gradientUnits="userSpaceOnUse" x1="682.0191" y1="353.9975" x2="708.4277" y2="328.2007">
				<stop  offset="0" style="stop-color:#354996"/>
				<stop  offset="1" style="stop-color:#4E6CDE"/>
			</linearGradient>
			<path fill="url(#SVGID_12_)" d="M704.451,334.349c0,0-6.075,2.509-7.909,6.439c-1.838,3.933-2.862,7.273-5.401,8.474
				c-1.178,0.559-2.073,1.774-2.69,2.915c-0.816-0.938-1.344-1.914-1.629-2.904c0.204-1.576,0.787-3.295,2.102-4.848
				c3.777-4.468,7.599-7.696,8.067-9.318c0.354-1.223,3.506-2.848,5.039-3.575c0.48,0.824,1.323,1.782,2.421,2.817V334.349z"/>
			<linearGradient id="SVGID_13_" gradientUnits="userSpaceOnUse" x1="737.5823" y1="340.0525" x2="765.8052" y2="340.0525">
				<stop  offset="0" style="stop-color:#1F3073"/>
				<stop  offset="1" style="stop-color:#4E6CDE"/>
			</linearGradient>
			<path fill="url(#SVGID_13_)" d="M737.582,350.732c0,0,14.787-5.377,22.954-11.414c2.422-1.79,4.266-3.642,4.963-5.426
				c0.609-1.557,0.348-3.065-1.16-4.44c0,0-0.989-0.404-3.492,0.635c-3.711,1.542-10.75,6.251-22.825,20.14
				C737.877,350.392,737.73,350.562,737.582,350.732z"/>
			<linearGradient id="SVGID_14_" gradientUnits="userSpaceOnUse" x1="737.5823" y1="343.5029" x2="779.6201" y2="343.5029">
				<stop  offset="0" style="stop-color:#7C3596"/>
				<stop  offset="1" style="stop-color:#3098FF"/>
			</linearGradient>
			<path fill="url(#SVGID_14_)" d="M737.582,350.732l0.842,4.123c0,0,29.523,7.374,38.899-2.25c0.138-0.139,0.271-0.283,0.396-0.428
				c0.815-0.938,1.344-1.914,1.63-2.904c2.648-9.132-15.01-19.822-15.01-19.822c0.403,0.514,0.296,1.225-0.202,2.08
				c-0.479,0.824-1.322,1.782-2.42,2.817C754.767,340.92,737.582,350.732,737.582,350.732z"/>
			<linearGradient id="SVGID_15_" gradientUnits="userSpaceOnUse" x1="733.0263" y1="353.4181" x2="732.4144" y2="345.9396">
				<stop  offset="0" style="stop-color:#354996"/>
				<stop  offset="1" style="stop-color:#4E6CDE"/>
			</linearGradient>
			<path fill="url(#SVGID_15_)" d="M727.46,350.732c0,0,1.379-1.561,2.347-0.95c0.968,0.612,2.345-1.171,3.823-0.457
				c1.478,0.713,1.632-1.263,3.417-0.174c1.783,1.091,2.855,4.659,1.529,6.444c-1.326,1.784-2.037-0.358-2.702,0
				c-0.665,0.356-1.886,1.948-3.925,0.72c-2.038-1.229-5.047,1.115-4.845-0.414C727.308,354.37,726.595,353.671,727.46,350.732z"/>
			<linearGradient id="SVGID_16_" gradientUnits="userSpaceOnUse" x1="733.0845" y1="422.7065" x2="733.0845" y2="361.2879">
				<stop  offset="0" style="stop-color:#FFC05C"/>
				<stop  offset="1" style="stop-color:#FF3857"/>
			</linearGradient>
			<rect x="678.993" y="354.709" fill="url(#SVGID_16_)" width="108.184" height="84.976"/>
			<linearGradient id="SVGID_17_" gradientUnits="userSpaceOnUse" x1="733.0846" y1="389.2598" x2="733.0846" y2="321.5328">
				<stop  offset="0" style="stop-color:#FFC05C"/>
				<stop  offset="1" style="stop-color:#FF3857"/>
			</linearGradient>
			<rect x="675.155" y="354.709" fill="url(#SVGID_17_)" width="115.86" height="29.487"/>
			<linearGradient id="SVGID_18_" gradientUnits="userSpaceOnUse" x1="733.0845" y1="442.4208" x2="733.0845" y2="324.9494">
				<stop  offset="0" style="stop-color:#7C3596"/>
				<stop  offset="1" style="stop-color:#3098FF"/>
			</linearGradient>
			<rect x="721.448" y="354.709" fill="url(#SVGID_18_)" width="23.272" height="84.976"/>
		</g>
		<g>
			<linearGradient id="SVGID_19_" gradientUnits="userSpaceOnUse" x1="50.8829" y1="146.5157" x2="157.6527" y2="146.5157">
				<stop  offset="0" style="stop-color:#40D5E6"/>
				<stop  offset="1" style="stop-color:#5577FF"/>
			</linearGradient>
			<path fill="url(#SVGID_19_)" d="M103.254,207.101c18.731,13.047,37.106,21.794,46.971,16.459c0.583-0.314,1.129-0.676,1.643-1.08
				c5.634-4.464,7.625-14.882,3.846-33.764c-10.058-50.253-41.633-58.252-71.144-73.378c-29.146-14.922-18.037-46.649-17.746-47.457
				C26.564,139.214,71.498,184.97,103.254,207.101z"/>
			<g>
				
					<linearGradient id="SVGID_20_" gradientUnits="userSpaceOnUse" x1="-5740.3735" y1="2280.2502" x2="-5740.3735" y2="2177.0945" gradientTransform="matrix(-0.7847 0.6199 0.6199 0.7847 -5757.168 2004.7111)">
					<stop  offset="0" style="stop-color:#40D5E6"/>
					<stop  offset="1" style="stop-color:#5577FF"/>
				</linearGradient>
				<path fill="url(#SVGID_20_)" d="M150.225,223.56c0.583-0.314,1.129-0.676,1.643-1.08c-3.717-9.769-11.923-28.672-23.119-38.908
					c-5.286-4.829-11.421-9.192-17.909-13.818c-12.276-8.733-24.964-17.778-33.543-31.107l-1.602,1.025
					c8.784,13.637,21.624,22.78,34.049,31.624c6.444,4.587,12.529,8.919,17.721,13.675
					C138.39,194.953,146.608,214.038,150.225,223.56z"/>
			</g>
		</g>
		<g>
			<linearGradient id="SVGID_21_" gradientUnits="userSpaceOnUse" x1="8.9855" y1="235.5493" x2="194.2804" y2="235.5493">
				<stop  offset="0" style="stop-color:#40D5E6"/>
				<stop  offset="1" style="stop-color:#5577FF"/>
			</linearGradient>
			<path fill="url(#SVGID_21_)" d="M48.288,258.454c25.84,4.234,42.507-16.178,72.24,21.405
				c25.669,32.442,61.979-3.418,71.433-13.835c1.498-1.653,2.319-2.662,2.319-2.662s-0.569,0.153-1.56,0.372
				c-6.445,1.395-30.883,5.368-36.635-13.208c-6.634-21.452-25.629-50.628-50.721-42.933c-25.085,7.7-30.52-11.187-49.043-25.417
				c-18.524-14.229-47.336,12.039-47.336,12.039S22.452,254.222,48.288,258.454z"/>
			<g>
				
					<linearGradient id="SVGID_22_" gradientUnits="userSpaceOnUse" x1="-3029.1194" y1="1990.8304" x2="-3029.1194" y2="1863.7004" gradientTransform="matrix(-0.5585 0.8295 0.8295 0.5585 -3158.6238 1682.7499)">
					<stop  offset="0" style="stop-color:#40D5E6"/>
					<stop  offset="1" style="stop-color:#5577FF"/>
				</linearGradient>
				<path fill="url(#SVGID_22_)" d="M129.219,251.354c4.907,8.532,9.983,17.349,21.501,22.182
					c15.714,6.583,31.757-1.136,41.24-7.511c1.498-1.653,2.319-2.662,2.319-2.662s-0.569,0.153-1.56,0.372
					c-8.94,6.353-25.426,15.172-41.437,8.457c-11.061-4.638-16.016-13.244-20.806-21.562c-5.537-9.621-11.257-19.568-26.319-23.009
					c-6.652-1.52-12.556-1.034-18.265-0.564c-8.223,0.68-15.99,1.326-24.496-4.576l-0.831,1.197
					c8.937,6.202,16.957,5.534,25.444,4.836c5.599-0.462,11.388-0.948,17.822,0.531C118.273,232.34,123.595,241.578,129.219,251.354
					z"/>
			</g>
		</g>
		<g>
			
				<linearGradient id="SVGID_23_" gradientUnits="userSpaceOnUse" x1="3958.8718" y1="-5643.8843" x2="4013.8" y2="-5722.7422" gradientTransform="matrix(0.7071 0.7071 -0.7071 0.7071 -6303.9546 1324.889)">
				<stop  offset="0" style="stop-color:#40D5E6"/>
				<stop  offset="1" style="stop-color:#5577FF"/>
			</linearGradient>
			<path fill="url(#SVGID_23_)" d="M529.709,138.301c2.771,51.059,43.281,48.518,46.483,48.238c0.138-0.012,0.204-0.019,0.204-0.019
				c-0.889-1.026-1.717-2.067-2.464-3.128c-20.291-28.105,2.822-66.559,2.439-94.842c-0.396-29.336-26.538-35.768-26.538-35.768
				C569.067,68.964,526.829,85.141,529.709,138.301z"/>
			<g>
				
					<linearGradient id="SVGID_24_" gradientUnits="userSpaceOnUse" x1="-11804.7305" y1="-803.0278" x2="-11749.8037" y2="-881.8824" gradientTransform="matrix(-0.9932 -0.1166 -0.1166 0.9932 -11739.9551 -1347.7891)">
					<stop  offset="0" style="stop-color:#40D5E6"/>
					<stop  offset="1" style="stop-color:#5577FF"/>
				</linearGradient>
				<path fill="url(#SVGID_24_)" d="M553.414,164.02c5.498,9.808,14.177,17.245,22.778,22.519c0.138-0.012,0.204-0.019,0.204-0.019
					c-0.889-1.026-1.717-2.067-2.464-3.128c-7.396-4.988-14.539-11.633-19.269-20.068c-6.083-10.849-7.11-22.842-3.071-35.643
					c12.819-40.591,5.545-47.056,5.231-47.317l-0.448,0.56l-0.467,0.543c0,0,0.007,0.01,0.019,0.017
					c0.379,0.404,6.347,7.617-5.696,45.765C546.062,140.444,547.136,152.817,553.414,164.02z"/>
			</g>
		</g>
		<g>
			<linearGradient id="SVGID_25_" gradientUnits="userSpaceOnUse" x1="580.0356" y1="221.9869" x2="637.9943" y2="-17.5856">
				<stop  offset="0" style="stop-color:#40D5E6"/>
				<stop  offset="1" style="stop-color:#5577FF"/>
			</linearGradient>
			<path fill="url(#SVGID_25_)" d="M611.328,189.322c-16.099,19.846-33.148,34.956-45.414,32.281
				c-0.722-0.158-1.424-0.377-2.102-0.653c-7.445-3.052-12.818-13.642-14.614-35.122c-4.776-57.17,26.7-75.572,53.749-100.999
				c26.72-25.093,17.66-55.77,17.099-56.55C685.483,92.506,638.615,155.665,611.328,189.322z"/>
			<g>
				<linearGradient id="SVGID_26_" gradientUnits="userSpaceOnUse" x1="547.2156" y1="209.3651" x2="653.2026" y2="103.3781">
					<stop  offset="0" style="stop-color:#40D5E6"/>
					<stop  offset="1" style="stop-color:#5577FF"/>
				</linearGradient>
				<path fill="url(#SVGID_26_)" d="M565.914,221.603c-0.722-0.158-1.424-0.377-2.102-0.653
					c0.967-11.661,3.928-34.538,12.794-49.022c4.187-6.834,9.431-13.43,14.973-20.419c10.493-13.203,21.336-26.868,26.425-43.867
					l2.042,0.605c-5.218,17.392-16.19,31.21-26.809,44.579c-5.508,6.934-10.711,13.481-14.819,20.209
					C569.766,187.161,566.85,210.238,565.914,221.603z"/>
			</g>
		</g>
		<linearGradient id="SVGID_27_" gradientUnits="userSpaceOnUse" x1="116.188" y1="279.5675" x2="587.2618" y2="279.5675">
			<stop  offset="0" style="stop-color:#FFC05C"/>
			<stop  offset="1" style="stop-color:#FF3857"/>
		</linearGradient>
		<path fill="url(#SVGID_27_)" d="M563.288,425.783H140.163c-13.24,0-23.975-10.733-23.975-23.973V157.327
			c0-13.242,10.735-23.975,23.975-23.975h423.124c13.241,0,23.974,10.733,23.974,23.975V401.81
			C587.262,415.05,576.529,425.783,563.288,425.783z"/>
		<g>
			<path fill="#FF7759" d="M506.722,234.119c-21.389,0-38.789-17.401-38.789-38.789c0-21.389,17.401-38.79,38.789-38.79
				c21.389,0,38.789,17.401,38.789,38.79C545.511,216.718,528.111,234.119,506.722,234.119z M506.722,162.25
				c-18.239,0-33.081,14.838-33.081,33.08c0,18.24,14.842,33.08,33.081,33.08c18.239,0,33.08-14.84,33.08-33.08
				C539.802,177.088,524.961,162.25,506.722,162.25z"/>
		</g>
		<g>
			<path fill="#FF6A59" d="M168.935,358.9c-2.13,0-4.104-0.365-5.929-1.094c-1.824-0.728-3.405-1.717-4.743-2.964
				c-1.338-1.244-2.403-2.704-3.192-4.377c-0.791-1.672-1.185-3.48-1.185-5.428c0-1.884,0.395-3.678,1.185-5.381
				c0.789-1.701,1.855-3.16,3.192-4.378c1.338-1.214,2.919-2.188,4.743-2.919c1.825-0.728,3.799-1.093,5.929-1.093
				c2.066,0,4.026,0.365,5.881,1.093c1.855,0.731,3.45,1.705,4.789,2.919c1.337,1.218,2.402,2.677,3.191,4.378
				c0.792,1.702,1.185,3.497,1.185,5.381c0,1.947-0.393,3.755-1.185,5.428c-0.789,1.672-1.855,3.132-3.191,4.377
				c-1.339,1.248-2.935,2.236-4.789,2.964C172.961,358.536,171.001,358.9,168.935,358.9z M158.993,392.645l25.718-30.005
				l23.714-31.19l5.564,4.925l-24.899,29.458l-24.534,31.738L158.993,392.645z M168.935,352.79c0.912,0,1.747-0.214,2.508-0.638
				c0.759-0.425,1.444-0.987,2.051-1.687c0.607-0.699,1.077-1.52,1.413-2.463c0.335-0.942,0.501-1.929,0.501-2.965
				c0-2.127-0.636-3.935-1.915-5.425c-1.277-1.489-2.797-2.235-4.559-2.235c-0.912,0-1.749,0.214-2.509,0.638
				c-0.761,0.426-1.446,0.989-2.053,1.687c-0.608,0.7-1.08,1.504-1.413,2.417c-0.335,0.913-0.501,1.885-0.501,2.918
				c0,2.131,0.638,3.953,1.915,5.473C165.65,352.031,167.17,352.79,168.935,352.79z M204.137,397.843
				c-2.128,0-4.103-0.365-5.928-1.093c-1.822-0.729-3.406-1.704-4.742-2.92c-1.338-1.215-2.402-2.659-3.191-4.33
				c-0.792-1.673-1.185-3.48-1.185-5.429c0-1.944,0.393-3.753,1.185-5.425c0.789-1.672,1.854-3.131,3.191-4.379
				c1.337-1.244,2.92-2.234,4.742-2.963c1.825-0.729,3.8-1.094,5.928-1.094c2.128,0,4.105,0.365,5.929,1.094
				c1.824,0.729,3.422,1.719,4.787,2.963c1.37,1.248,2.433,2.707,3.194,4.379c0.761,1.672,1.14,3.482,1.14,5.425
				c0,1.948-0.379,3.756-1.14,5.429c-0.761,1.671-1.824,3.114-3.194,4.33c-1.365,1.216-2.963,2.191-4.787,2.92
				C208.243,397.479,206.266,397.843,204.137,397.843z M204.137,391.733c0.912,0,1.749-0.211,2.508-0.64
				c0.761-0.423,1.446-0.986,2.054-1.686c0.607-0.698,1.079-1.504,1.413-2.419c0.334-0.909,0.501-1.882,0.501-2.918
				c0-1.093-0.182-2.11-0.547-3.054c-0.365-0.942-0.836-1.761-1.413-2.462c-0.578-0.698-1.262-1.245-2.051-1.641
				c-0.792-0.396-1.614-0.594-2.464-0.594c-0.911,0-1.749,0.215-2.507,0.639c-0.761,0.426-1.444,0.989-2.051,1.687
				c-0.609,0.699-1.08,1.52-1.413,2.462c-0.335,0.944-0.503,1.93-0.503,2.963c0,2.131,0.638,3.939,1.916,5.429
				C200.855,390.991,202.374,391.733,204.137,391.733z"/>
		</g>
		<linearGradient id="SVGID_28_" gradientUnits="userSpaceOnUse" x1="47.6683" y1="180.1842" x2="446.6446" y2="180.1842">
			<stop  offset="0" style="stop-color:#FFC05C"/>
			<stop  offset="1" style="stop-color:#FF3857"/>
		</linearGradient>
		<rect x="143.754" y="171.245" fill="url(#SVGID_28_)" width="249.877" height="17.878"/>
		<linearGradient id="SVGID_29_" gradientUnits="userSpaceOnUse" x1="47.6683" y1="158.8561" x2="446.6446" y2="158.8561">
			<stop  offset="0" style="stop-color:#FFC05C"/>
			<stop  offset="1" style="stop-color:#FF3857"/>
		</linearGradient>
		<rect x="143.754" y="156.539" fill="url(#SVGID_29_)" width="249.877" height="4.633"/>
		<linearGradient id="SVGID_30_" gradientUnits="userSpaceOnUse" x1="47.6685" y1="207.9548" x2="446.6451" y2="207.9548">
			<stop  offset="0" style="stop-color:#FFC05C"/>
			<stop  offset="1" style="stop-color:#FF3857"/>
		</linearGradient>
		<rect x="143.754" y="199.016" fill="url(#SVGID_30_)" width="127.802" height="17.878"/>
		<linearGradient id="SVGID_31_" gradientUnits="userSpaceOnUse" x1="533.5856" y1="330.1328" x2="186.0724" y2="330.1328">
			<stop  offset="0" style="stop-color:#EDF4FF"/>
			<stop  offset="1" style="stop-color:#EDFFFE"/>
		</linearGradient>
		<path opacity="0.95" fill="url(#SVGID_31_)" d="M431.201,452.311H272.25c-10.104,0-18.297-8.192-18.297-18.296V226.252
			c0-10.106,8.193-18.297,18.297-18.297h158.95c10.104,0,18.297,8.191,18.297,18.297v207.763
			C449.497,444.119,441.305,452.311,431.201,452.311z"/>
		<g>
			<path fill="#FF5458" d="M401.218,410.1c-11.882,0-21.549-9.667-21.549-21.551c0-11.881,9.667-21.548,21.549-21.548
				s21.549,9.667,21.549,21.548C422.768,400.432,413.1,410.1,401.218,410.1z M401.218,371.171c-9.583,0-17.379,7.796-17.379,17.378
				c0,9.583,7.796,17.38,17.379,17.38s17.377-7.797,17.377-17.38C418.595,378.967,410.802,371.171,401.218,371.171z"/>
		</g>
		<g>
			<polygon fill="#FF5458" points="399.845,397.031 390.055,387.241 393.004,384.293 399.845,391.133 409.434,381.543 
				412.383,384.493 			"/>
		</g>
		<g>
			<rect x="461.065" y="379.064" fill="#FF7759" width="6.253" height="28.822"/>
			<rect x="470.309" y="379.064" fill="#FF7759" width="3.128" height="28.822"/>
			<rect x="476.428" y="379.064" fill="#FF7759" width="5.71" height="28.822"/>
			<rect x="485.221" y="379.064" fill="#FF7759" width="3.426" height="28.822"/>
			<rect x="491.044" y="379.171" fill="#FF7759" width="1.593" height="28.821"/>
			<rect x="494.957" y="379.064" fill="#FF7759" width="5.466" height="28.822"/>
			<rect x="502.638" y="379.064" fill="#FF7759" width="4.141" height="28.822"/>
			<rect x="508.759" y="379.064" fill="#FF7759" width="2.068" height="28.822"/>
			<rect x="513.176" y="379.064" fill="#FF7759" width="5.874" height="28.822"/>
			<rect x="520.53" y="379.064" fill="#FF7759" width="4.383" height="28.822"/>
			<rect x="526.805" y="379.064" fill="#FF7759" width="2.191" height="28.822"/>
			<rect x="530.743" y="379.064" fill="#FF7759" width="3.018" height="28.822"/>
			<rect x="535.915" y="379.198" fill="#FF7759" width="9.597" height="28.825"/>
		</g>
		<linearGradient id="SVGID_32_" gradientUnits="userSpaceOnUse" x1="351.7261" y1="118.6945" x2="351.7261" y2="59.0781">
			<stop  offset="0" style="stop-color:#7C3596"/>
			<stop  offset="1" style="stop-color:#3098FF"/>
		</linearGradient>
		<path fill="url(#SVGID_32_)" d="M154.738,59.078v52.982c0,0,10.564,14.927,23.175,0h23.175c0,0,10.562,14.927,23.174,0h23.177
			c0,0,10.561,14.927,23.174,0h23.175c0,0,10.564,14.927,23.176,0h23.173c0,0,10.564,14.927,23.177,0h23.174
			c0,0,10.562,14.927,23.175,0h23.175c0,0,10.564,14.927,23.176,0h23.174c0,0,10.562,14.927,23.174,0h23.176
			c0,0,10.564,14.927,23.176,0V59.078H154.738z"/>
		<g>
			<path fill="#38D2E0" d="M177.913,112.06c0,0,10.564,14.927,23.175,0V59.078h-23.175V112.06z"/>
			<path fill="#38D2E0" d="M224.261,112.06c0,0,10.562,14.927,23.177,0V59.078h-23.177V112.06z"/>
			<path fill="#38D2E0" d="M270.613,112.06c0,0,10.564,14.927,23.175,0V59.078h-23.175V112.06z"/>
			<path fill="#38D2E0" d="M316.964,112.06c0,0,10.562,14.927,23.173,0V59.078h-23.173V112.06z"/>
			<path fill="#38D2E0" d="M363.314,112.06c0,0,10.56,14.927,23.174,0V59.078h-23.174V112.06z"/>
			<path fill="#38D2E0" d="M409.663,112.06c0,0,10.564,14.927,23.175,0V59.078h-23.175V112.06z"/>
			<path fill="#38D2E0" d="M456.014,112.06c0,0,10.562,14.927,23.174,0V59.078h-23.174V112.06z"/>
			<path fill="#38D2E0" d="M502.362,59.078v52.982c0,0,10.564,14.927,23.176,0V59.078H502.362z"/>
		</g>
		<path fill="#FF5458" d="M388.209,244.299l-3.263,14.381h-83.678v3.264l12.039,55.899v1.632h6.82l1.732,7.24h2.493
			c-2.335,0.861-4.007,3.102-4.007,5.732c0,3.373,2.744,6.116,6.116,6.116c3.372,0,6.114-2.744,6.114-6.116
			c0-2.63-1.672-4.871-4.007-5.732h34.389c-2.335,0.861-4.007,3.102-4.007,5.732c0,3.373,2.743,6.116,6.114,6.116
			c3.374,0,6.117-2.744,6.117-6.116c0-2.63-1.674-4.871-4.007-5.732h2.717v-2.579h-45.995l-1.116-4.661h51.912v-1.632l9.856-45.755
			l5.721-25.209h35.09v-2.58H388.209z M329.997,332.448c0,1.95-1.587,3.537-3.536,3.537c-1.95,0-3.537-1.587-3.537-3.537
			c0-1.948,1.587-3.534,3.537-3.534C328.409,328.913,329.997,330.499,329.997,332.448z M368.6,332.448
			c0,1.95-1.586,3.537-3.537,3.537c-1.95,0-3.534-1.587-3.534-3.537c0-1.948,1.585-3.534,3.534-3.534
			C367.014,328.913,368.6,330.499,368.6,332.448z M333.057,281.121h21.883l-1.142,15.913h-19.599L333.057,281.121z M331.327,297.034
			h-19.57l-3.429-15.913h21.854L331.327,297.034z M355.175,277.858h-22.353l-1.142-15.914h24.638L355.175,277.858z M359.191,261.944
			h24.61l-3.429,15.914h-22.323L359.191,261.944z M353.563,300.297l-1.142,15.913h-16.844l-1.142-15.913H353.563z M356.437,300.297
			h19.101l-3.428,15.913h-16.815L356.437,300.297z M376.238,297.034h-19.565l1.142-15.913h21.854l-3.359,15.597L376.238,297.034z
			 M328.808,261.944l1.142,15.914h-22.323l-3.429-15.914H328.808z M312.46,300.297h19.098l1.143,15.913h-16.816L312.46,300.297z"/>
		<rect x="341.922" y="424.498" fill="#FF5458" width="19.607" height="2.494"/>
		<rect x="341.922" y="221.911" fill="#FF5458" width="19.607" height="2.494"/>
		<rect x="282.88" y="377.544" fill="#FF5458" width="48.462" height="6.474"/>
		<rect x="282.88" y="393.083" fill="#FF5458" width="71.746" height="6.475"/>
		<rect x="470.309" y="272.494" fill="#FF6A59" width="75.202" height="24.723"/>
		<rect x="470.309" y="304.032" fill="#FF6A59" width="75.202" height="14.688"/>
		<g>
			<g>
				<g>
					<g>
						<path fill="#EEA886" d="M504.396,383.714c0,0-0.985,1.615-1.11,2.932c-0.096,1.044-0.974,2.603-1.353,3.465
							c-0.38,0.861-1.601,4.76-1.645,5.774c-0.019,0.414,0.906,3.028,0.776,3.864c-0.132,0.835-0.612,2.493,0.14,2.604
							c0.751,0.11,1.602-1.248,1.602-1.248s-0.07,0.769,0.564,1.064c1.236,0.57,1.891,0.067,1.891,0.067s0.456,0.848,1.028,0.962
							c1.258,0.251,1.878-0.256,1.878-0.256s0.557,0.475,1.428,0.459c1.116-0.023,1.584-0.985,1.584-0.985s1.411,0.286,1.822-0.374
							c0.409-0.66,0.337-1.36,0.505-1.959c0.172-0.596,0.043-5.987-1.788-9.866c-1.832-3.881,0.467-7.668,0.467-7.668
							L504.396,383.714z"/>
					</g>
				</g>
			</g>
			<g>
				<g>
					<path fill="#DB9C7C" d="M502.609,400.599c0,0-0.126-4.836,1.144-5.867c1.275-1.028,1.421,0.717,1.421,0.717
						s-0.174-1.725,1.218-1.958c1.389-0.234,1.448,1.816,1.448,1.816s0.228-1.33,1.689-1.058c1.461,0.273,1.112,1.972,1.112,1.972
						s1.395-1.665,2.302-0.067c1.528,2.701,0.056,5.888,0.056,5.888s-0.433,0.731-1.822,0.374c0,0-0.931,1.873-3.011,0.526
						c0,0-2.131,1.172-2.906-0.707C505.261,402.237,502.913,403.353,502.609,400.599z"/>
				</g>
			</g>
			<path fill="#323657" d="M487.99,314.045c0,0,8.28,27.595,11.078,37.772c0.876,3.194,3,33.677,3.374,34.905
				c0.377,1.229,10.878,2.909,10.878,2.909s-1.273-38.137-1.39-40.216c-0.12-2.079-11.589-44.669-14.922-46.188
				c-2.5-1.137-3.819-0.198-6.968,2.142C485.619,308.648,487.99,314.045,487.99,314.045z"/>
			<g>
				<g>
					<path fill="#424773" d="M494.708,502.452c0,0,0.756,5.238,0.849,6.025c0.095,0.787,8.394-0.464,8.394-0.464l0.673-6.235
						C504.625,501.778,495.746,501.713,494.708,502.452z"/>
				</g>
			</g>
			<g>
				<g>
					<path fill="#292C47" d="M495.469,507.811c0,0-2.63,3.156-5.173,4.531c-2.543,1.376-6.543,1.922-8.047,3.346
						c-1.083,1.027-3.953,5.454,6.612,5.365c10.565-0.09,15.659,0.625,16.789-1.073c1.135-1.696-1.637-12.525-1.637-12.525
						S501.51,508.356,495.469,507.811z"/>
				</g>
			</g>
			<g>
				<g>
					<path fill="#424773" d="M435.228,502.452c0,0,0.758,5.238,0.852,6.025c0.094,0.787,8.394-0.464,8.394-0.464l0.671-6.235
						C445.145,501.778,436.267,501.713,435.228,502.452z"/>
				</g>
			</g>
			<g>
				<g>
					<path fill="#292C47" d="M435.991,507.811c0,0-2.632,3.156-5.176,4.531c-2.541,1.376-11.904,2.506-13.408,3.932
						c-1.087,1.028-2.891,5.166,11.973,4.78c10.561-0.275,15.659,0.625,16.791-1.073c1.133-1.696-1.639-12.525-1.639-12.525
						S442.177,508.417,435.991,507.811z"/>
				</g>
			</g>
			<g>
				<g>
					<path fill="#292C47" d="M487.835,367.849c0,0,7.799,12.391,7.216,23.593c-0.581,11.202,2.829,23.434,4,35.135
						c1.308,13.046,6.654,43.93,6.847,50.908c0.194,6.978-0.831,29.261-0.831,29.261l-10.698,0.245c0,0-8.988-53.991-11.317-59.503
						c-2.327-5.508-13.869-44.784-14.257-49.192C468.405,393.889,487.835,367.849,487.835,367.849z"/>
				</g>
			</g>
			<g>
				<g>
					<path fill="#292C47" d="M446.774,369.528c0,0-5.879,30.702-6.654,37.557c-0.777,6.858-1.293,33.181-1.681,37.465
						c-0.389,4.284-3.624,55.946-4.656,62.441h13.681c0,0,10.502-37.647,10.502-55.463c0-17.812,8.113-38.725,13.352-50.477
						c5.234-11.754,17.223-12.03,20.443-33.836C491.761,367.214,451.132,362.611,446.774,369.528z"/>
				</g>
			</g>
			<g>
				<g>
					<path fill="#EEA886" d="M474.819,263.66c0,0-10.469-3.912-15.297,4.059c-4.829,7.97-4.362,23.924,0.914,25.885
						c5.279,1.962,13.204,0.936,15.907-4.05c2.703-4.987,5.141-12.195,5.024-17.013C481.249,267.721,477.568,265.05,474.819,263.66z
						"/>
				</g>
			</g>
			<g>
				<g>
					<path fill="#EEA886" d="M461.574,293.969c0,0,0.435,2.828-0.286,4.219c-0.72,1.392,13.563,1.428,13.563,1.428
						s1.16-7.571,3.359-13.972C480.408,279.245,461.574,293.969,461.574,293.969z"/>
				</g>
			</g>
			<g>
				<g>
					<path fill="#323657" d="M478.211,285.644c0,0-0.987,1.626-5.01,0.996c-4.025-0.631-8.933-5.985-10.614-6.574
						c-1.68-0.586-1.694-1.574-1.694-1.574l-1.056,1.536l-1.783,0.114c0,0,1.627-4.789-0.827-6.741
						c-2.457-1.954,2.549-15.503,15.454-10.992c0,0,9.912,2.733,9.552,8.369C481.871,276.415,480.429,282.837,478.211,285.644z"/>
				</g>
			</g>
			<g>
				<g>
					<path fill="#E2D2CA" d="M460.441,298.02c0,0,0.043-2.66,1.25-2.915c1.207-0.254,13.312-1.419,14.793-0.837v3.098
						C476.484,297.365,473.631,299.123,460.441,298.02z"/>
				</g>
			</g>
			<g>
				<g>
					<path fill="#EEA886" d="M461.156,276.441c0.226-0.944,2.631-3.648,3.551-0.755c0.921,2.894-1.39,6.786-2.68,6.452
						C460.739,281.806,460.585,278.839,461.156,276.441z"/>
				</g>
			</g>
			<g>
				<g>
					<path fill="#323657" d="M412.4,329.454c0.006-0.002,0.012-0.002,0.019-0.001C412.335,329.489,412.323,329.493,412.4,329.454z"
						/>
				</g>
			</g>
			<g>
				<g>
					<path fill="#323657" d="M477.8,264.599c0,0,13.347,1.044,0.41,21.045L477.8,264.599z"/>
				</g>
			</g>
			<path fill="#EFAA88" d="M386.831,268.662c0.427-1.338,1.862-1.729,1.862-1.729c0.6-0.903,2.142-1.376,2.142-1.376
				c0.02-0.063,0.059-0.122,0.09-0.182c-0.947-1.017-3.699-2.918-3.86-3.279c-0.194-0.437-0.145-0.485,0.39-0.777
				c0.445-0.243,4.933,2.68,6.433,3.669c0.367,0.233,0.666,0.449,0.725,0.499c0.417,0.349,1.255,0.605,1.96,1.348
				c0.079,0.077,0.154,0.166,0.228,0.259c0.741,0.951,2.493,8.561,2.493,8.561l-3.126,1.402l-3.014,2.555
				c0,0-3.515-2.909-4.416-3.825c-0.906-0.916-1.317-1.983-1.566-2.433c-0.06-0.109-0.17-0.265-0.298-0.44
				c-0.409-0.553-1.029-1.292-1.029-1.292c-0.307-0.431-0.487-1.502-0.487-1.502C385.419,269.221,386.831,268.662,386.831,268.662z"
				/>
			<g>
				<g>
					<path fill="#323657" d="M440.419,302.049c8.301-1.094,20.022-4.029,20.022-4.029l16.043-0.655c0,0,14.723,3.242,20.522,5.862
						c0.55,0.25,0.552,13.135,2.061,16.513l-4.807,10.142c0,0-2.777,20.091-3.353,29.026c-0.264,4.102,5.725,38.461,5.725,38.461
						s-6.42,1.892-17.367,3.098c-10.949,1.207-38.307-0.437-38.478-1.729c-0.173-1.293,5.298-48.152,5.54-50.579
						c0.371-3.725-1.286-23.515-1.286-23.515c-2.525-1.963-24.722-12.264-30.778-17.635c-1.62-1.436-8.461-8.097-10.404-10.396
						c-6.884-8.141-12.528-15.125-13.216-16.631c-0.78-0.857,7.481-5.348,8.231-5.597c0.656-0.22,9.961,11.84,13.544,15.72
						c1.597,1.729,8.237,6.559,8.237,6.559S435.228,302.347,440.419,302.049z"/>
				</g>
			</g>
		</g>
		<g>
			<g>
				<path fill="#EEA886" d="M180.608,295.668c0,0,1.933-3.609,2.246-4.151c0.312-0.541,1.879-1.309,3.755-2.035
					c1.878-0.726,4.736-0.866,5.021-0.666c0.282,0.2,0.662,0.274,0.963,1.11c0.302,0.836,0.006,1.724,0.006,1.724
					s0.786,0.893,0.452,1.951c0,0,0.849,0.797,0.272,1.936c0,0,0.812,0.843,0.323,1.636c0,0-1.567,0.773-2.067,1.226
					c-0.498,0.453-3.874,1.837-7.316,2.666C184.264,301.065,180.75,300.749,180.608,295.668z"/>
			</g>
			<g>
				<path fill="#CF8C6C" d="M186.233,294.194c0,0-0.185,2.048-0.529,2.597c-0.342,0.548,3.943,2.314,3.943,2.314
					S188.714,294.485,186.233,294.194z"/>
			</g>
			<g>
				<g>
					<polygon fill="#EB4747" points="235.211,346.859 184.013,353.52 175.334,306.634 228.861,297.476 					"/>
				</g>
			</g>
			<g>
				<g>
					<path fill="#23344A" d="M209.294,302.077c-0.17-4.913-1.92-10.805-5.74-13.946c-2.824-2.319-6.265-2.818-9.814-2.245
						c-8.316,1.344-8.876,10.025-7.179,16.146L209.294,302.077z M187.417,300.93c-1.424-6.513-0.15-12.878,6.499-13.952
						c3.234-0.523,6.387-0.091,8.936,2.006c3.323,2.728,4.907,7.781,5.278,11.985L187.417,300.93z"/>
				</g>
			</g>
			<g>
				<g>
					<path fill="#23344A" d="M211.367,302.077c-0.17-4.913-2.373-10.805-6.193-13.946c-2.824-2.319-6.267-2.818-9.814-2.245
						c-8.316,1.344-7.369,10.025-5.671,16.146L211.367,302.077z M190.546,300.93c-1.424-6.513-1.66-12.878,4.992-13.952
						c3.232-0.523,6.384-0.091,8.936,2.006c3.321,2.728,5.66,7.781,6.03,11.985L190.546,300.93z"/>
				</g>
			</g>
			<g>
				<g>
					<polygon fill="#9E4CC7" points="227.315,354.37 167.554,349.769 172.359,301.356 227.886,299.724 					"/>
				</g>
			</g>
			<g>
				<path fill="#EEA886" d="M60.401,327.579c0,0,0.49-4.065,0.546-4.687c0.054-0.621-0.786-2.151-1.905-3.825
					c-1.119-1.671-3.38-3.429-3.726-3.428c-0.348,0.002-0.698-0.158-1.426,0.354c-0.729,0.512-1.032,1.374-1.032,1.374
					s-1.206,0.24-1.539,1.299c0,0-1.089,0.226-1.273,1.489c0,0-1.128,0.235-1.183,1.166c0,0,0.841,1.533,0.988,2.191
					c0.146,0.659,2.114,3.73,4.455,6.384C54.305,329.896,57.366,331.656,60.401,327.579z"/>
			</g>
			<g>
				<g>
					<path fill="#23344A" d="M66.997,333.189c0.487-3.755,0.013-8.589-2.51-11.525c-1.66-1.933-3.919-2.741-6.414-2.792
						c-3.438-0.082-6.634,0.866-8.984,3.419c-3.201,3.476-4.067,9.298-3.585,13.947L66.997,333.189z M46.462,335.037
						c-0.197-4.053,0.618-9.004,3.405-12.031c2.113-2.289,5.032-3.161,8.185-3.079c2.216,0.047,4.199,0.756,5.632,2.421
						c2.123,2.469,2.644,6.691,2.359,9.91L46.462,335.037z"/>
				</g>
			</g>
			<g>
				<g>
					<polygon fill="#3F74A0" points="22.578,388.405 26.498,337.956 35.25,387.703 29.197,386.645 					"/>
				</g>
			</g>
			<g>
				<g>
					<polygon fill="#5B83C2" points="35.25,387.703 87.231,378.564 78.726,330.142 26.361,337.585 					"/>
				</g>
			</g>
			<g>
				<g>
					<path fill="#23344A" d="M90.87,344.03c0.853,2.474,0.046,5.593-1.031,7.934l0.931,0.066c1.106-2.507,1.825-5.668,0.921-8.28
						L90.87,344.03z"/>
				</g>
			</g>
			<g>
				<g>
					<polygon fill="#EB4747" points="52.568,389.636 95.168,395.179 102.415,356.133 57.877,348.514 					"/>
				</g>
			</g>
			<g>
				<g>
					<polygon fill="#AD3434" points="43.89,388.405 57.85,348.546 52.568,389.384 48.045,387.703 					"/>
				</g>
			</g>
			<g>
				<g>
					<path fill="#23344A" d="M91.831,342.915c1.512,2.999,0.77,7.065,0.504,8.253l0.872,0.32c0.287-1.201,1.291-6.188-0.935-9.652
						L91.831,342.915z"/>
				</g>
			</g>
			<g>
				<g>
					<polygon fill="#B06E2A" points="48.045,394.375 57.519,351.31 59.139,395.635 53.969,393.658 					"/>
				</g>
			</g>
			<g>
				<path fill="#EEA886" d="M54.305,329.896c0,0,3.19,2.833,4.831,2.882c1.644,0.052,2.481-4.461,2.481-4.461l-1.418-2.765
					L54.305,329.896z"/>
			</g>
			<g>
				<path fill="#EEA886" d="M178.442,298.233c0,0,1.596-1.506,2.296-2.811c0.704-1.307,3.88,5.574,3.88,5.574
					s-3.96,0.163-5.701,1.389C177.175,303.612,178.442,298.233,178.442,298.233z"/>
			</g>
			<g>
				<path fill="#DB9C7C" d="M191.132,288.988c0,0-4.714,1.956-4.492,2.753c0.22,0.797,0.785,0.955,0.785,0.955l-1.573,1.684
					c0,0-0.414,1.705,1.565,1.657c0,0-0.551,1.55,1.35,1.275c0,0,0.095,1.188,0.998,1.215c0.905,0.03,3.882-1.354,3.882-1.354
					s0.498-0.576-0.241-1.636c0,0,0.619-1.059-0.193-1.983c0,0,0.362-0.926-0.522-1.916c0,0,0.644-2.127-1.061-2.822
					C191.63,288.816,191.329,288.905,191.132,288.988z"/>
			</g>
			<g>
				<path fill="#EEA886" d="M182.996,291.439c0,0,3.489,0.281,5.327,1.272c0.415,0.224,0.777,0.517,0.726,0.986
					c-0.052,0.47-0.798,0.993-2.314,0.949c-1.519-0.044-3.501,0.593-3.501,0.593S181.688,294.737,182.996,291.439z"/>
			</g>
			<g>
				<path fill="#CF8C6C" d="M56.643,323.143c0,0-1.026,1.783-1.06,2.43c-0.035,0.645-4.557-0.371-4.557-0.371
					S54.443,321.955,56.643,323.143z"/>
			</g>
			<g>
				<path fill="#DB9C7C" d="M55.626,316.067c0,0,2.733,4.307,2.092,4.833c-0.638,0.527-1.193,0.332-1.193,0.332l0.32,2.283
					c0,0-0.639,1.63-2.23,0.457c0,0-0.44,1.585-1.84,0.268c0,0-0.758,0.917-1.514,0.421c-0.756-0.495-2.399-3.339-2.399-3.339
					s-0.077-0.758,1.137-1.201c0,0,0.103-1.223,1.298-1.514c0,0,0.235-0.966,1.528-1.267c0,0,0.695-2.11,2.489-1.7
					C55.315,315.64,55.512,315.884,55.626,316.067z"/>
			</g>
			<g>
				<path fill="#EEA886" d="M60.876,322.749c0,0-3.019-1.776-5.092-2.02c-0.468-0.056-0.933-0.025-1.16,0.39
					c-0.229,0.411,0.083,1.27,1.348,2.105c1.268,0.835,2.524,2.497,2.524,2.497S60.051,326.197,60.876,322.749z"/>
			</g>
			<g>
				<g>
					<path fill="#3F74A0" d="M116.826,511.055c-2.439,0.732-3.17,4.878-5.243,6.097c-2.073,1.22-12.194,2.074-12.56-1.098
						c-0.366-3.17,4.246-6.011,6.319-7.597c2.073-1.585,6.729-6.793,7.679-8.865c0,0,0.839,1.321,3.317,0.915
						c2.479-0.407,2.891-1.063,2.891-1.063c-0.094,2.453,0.765,4.195,1.011,5.148C121.095,507.886,119.267,510.323,116.826,511.055z
						"/>
				</g>
			</g>
			<g>
				<g>
					<path fill="#3F74A0" d="M133.362,511.623c-1.881,1.714-2.239,4.447-4.312,5.669c-0.601,0.354-1.784,0.708-3.168,0.954
						c-2.531,0.455-5.744,0.552-7.316-0.367c-0.535-0.311-0.881-0.739-0.945-1.311c-0.367-3.168,4.332-6.722,6.407-8.307
						c1.274-0.973,2.596-3.242,3.647-5.327c0.658-1.301,1.207-2.531,1.574-3.331c0,0,0,0,0-0.001
						c0.007,0.013,0.12,0.229,0.426,0.446c0.428,0.306,1.235,0.614,2.659,0.382c1.988-0.326,2.751-0.851,2.975-1.045
						c0.012-0.012,0.023-0.022,0.031-0.029c0.013-0.013,0.023-0.022,0.03-0.03c0.005-0.005,0.007-0.01,0.01-0.011
						c0.002-0.002,0.005-0.005,0.006-0.007l0,0c0.002,0,0.002,0,0.002,0c0.409,1.982,1.053,4.006,1.297,4.957
						C137.541,507.557,135.142,510.002,133.362,511.623z"/>
				</g>
			</g>
			<g>
				<g>
					<path fill="#223247" d="M115.468,261.33c0,0,7.918-0.83,10.772,6.819c2.854,7.648,5.54,10.152,5.876,14.17
						c1.36,16.249,8.95,12.574,6.816,21.943c-2.134,9.367-3.612,10.784-3.612,10.784l-18.143-3.557l-18.38,0.059
						c0,0,7.191-3.591,5.59-11.239c-1.6-7.648-5.59-20.183-3.336-28.72C103.303,263.049,110.734,261.983,115.468,261.33z"/>
				</g>
			</g>
			<g>
				<g>
					<polygon fill="#FAA146" points="59.139,395.635 105.105,394.025 105.947,351.099 57.562,351.099 					"/>
				</g>
			</g>
			<g>
				<g>
					<polygon fill="#AD3434" points="247.265,343.426 228.861,297.476 235.211,346.859 240.573,343.719 					"/>
				</g>
			</g>
			<g>
				<g>
					<polygon fill="#5B2C73" points="240.646,352.856 227.886,299.724 227.315,354.37 233.526,351.992 					"/>
				</g>
			</g>
			<g>
				<g>
					<path fill="#EEA886" d="M102.389,370.379c0,0-6.673,23.259-7.837,29.196c-1.164,5.935-4.423,34.684-4.773,39.573
						c-0.349,4.889,10.896,27.811,11.509,29.463c2.377,6.4,12.078,29.609,12.078,29.609s6.269,3.725,5.567-1.73
						c-2.131-16.568-3.131-20.666-4.624-29.267c-3.268-18.831-10.018-21.303-8.986-24.05c10.445-27.772,12.549-46.618,13.946-48.247
						c1.396-1.628,1.588,0.831,2.404,4.439c0.813,3.609-0.329,28.445,1.137,38.033c0.799,5.219,2.597,16.92,3.179,23.67
						c0.582,6.751,3.63,37.994,3.63,37.994s0.401,1.166,5.058-1.413c0.773-0.428,4.465-27.614,4.582-35.645
						c0.118-8.031-3.434-9.178-0.586-24.726c6.105-33.326,5.261-39.068-1.858-63.02
						C119.394,315.649,102.389,370.379,102.389,370.379z"/>
				</g>
			</g>
			<g>
				<g>
					<path fill="#F0DDD5" d="M183.804,302.275c-0.278-0.288-17.213,12.68-19.061,13.749c-3.633,2.1-7.587,1.994-11.695,2.245
						c-4.604,0.282-9.838-0.208-14.358,0.702c-2.344,0.469-2.62,1.08-3.842,3.575c-3.322,6.783-4.399,15.217-4.84,22.678
						c-0.461,7.778,2.524,13.181,5.658,20.045c1.065,2.331,2.567,4.738,0.501,6.866c-1.858,1.918-5.507,2.307-7.946,2.625
						c-5.999,0.783-15.187,1.264-20.96-1.117c-7.064-2.914-5.799-11.808-6.555-18.016c-0.504-4.153-2.512-10.381-3.666-14.411
						c-1.135-3.974-1.26-5.644-1.044-9.874c-2.203,6.255-4.062,16.95-9.991,20.921c-4.591,3.074-8.691-1.05-11.99-3.921
						c-6.258-5.444-12.517-10.891-18.776-16.338c1.333-1.23,2.667-2.462,4-3.694c0.438-0.404,0.461-0.512,0.96-0.913
						c1.168-0.937,1.035-1.279,2.243-0.452c0.809,0.551,2.974,2.559,3.662,3.197c2.267,2.11,4.257,3.389,6.524,5.5
						c1.971,1.833,5.35,6.087,8.374,4.602c2.327-1.143,2.963-5.877,3.762-7.99c2.222-5.869,4.46-11.776,7.108-17.47
						c2.834-6.092,9.107-9.328,15.19-11.754c5.267-2.1,12.316-1.681,17.66-0.32c3.748,0.955,5.089,1.011,8.82,2.048
						c3.566,0.992,6.903,2.261,10.517,3.008c4.219,0.875,8.523,1.173,12.818,1.229c3.378,0.042,4.778-0.528,7.623-2.503
						c3.824-2.652,9.42-7.239,13.62-9.363C180.821,295.765,181.743,300.161,183.804,302.275z"/>
				</g>
			</g>
			<g>
				<g>
					<path fill="#EEA886" d="M120.938,293.102c0,0-0.636,7.906,0.885,10.274c1.524,2.367-1.302,5.582-7.122,4.483
						c-5.82-1.1-5.482-4.399-5.482-4.399s1.629-4.879,1.152-8.784C109.897,290.77,120.938,293.102,120.938,293.102z"/>
				</g>
			</g>
			<g>
				<g>
					<path fill="#EEA886" d="M124.723,302.709c0,0-5.249,12.264-12.05,14.825c0,0-6.706-5.954-4.901-14.775
						C107.772,302.759,116.426,298.328,124.723,302.709z"/>
				</g>
			</g>
			<g>
				<g>
					<path fill="#EEA886" d="M116.512,265.802c0,0,10.488,1.515,8.952,16.997c-1.536,15.485-10.793,14.256-11.411,14.244
						c-0.619-0.013-9.287,0.322-10.036-18.574C104.018,278.47,103.668,264.499,116.512,265.802z"/>
				</g>
			</g>
			<g>
				<g>
					<path fill="#223247" d="M115.312,271.415c0,0,4.9,5.152,7.177,7.76c2.277,2.611,2.539,7.649,2.539,7.649
						s3.834-4.684,2.231-10.139c-1.605-5.454-5.399-16.067-15.004-12.807c-9.605,3.262-9.96,17.61-8.835,24.724
						C103.421,288.603,107.732,272.898,115.312,271.415z"/>
				</g>
			</g>
			<g>
				<path fill="#A77860" d="M111.279,296.39c0,0,4.485,2.245,9.032-1.301c0,0-1.743,2.902-4.789,3.06
					C112.474,298.306,111.279,296.39,111.279,296.39z"/>
			</g>
			<g>
				<path fill="#23344A" d="M82.464,338.804c-0.45,0.96-1.464,1.441-1.464,1.441c-4.794,2.588-5.628,8.694-5.796,10.854l-1.019-0.01
					C75.028,339.834,82.464,338.804,82.464,338.804z"/>
			</g>
			<g>
				<path fill="#23344A" d="M82.183,338.866c0,0-7.743,0.366-9.925,12.106l0.795,0.126c0,0,1.516-8.652,7.697-10.974
					C80.751,340.125,81.61,339.758,82.183,338.866z"/>
			</g>
			<g>
				<path fill="#F0DDD5" d="M136.984,368.387c0,0,10.591,21.935,3.471,66.442c0,0-21.603-2.025-54.001-4.34
					c0,0,14.74-59.865,15.151-63.669C102.019,363.017,136.984,368.387,136.984,368.387z"/>
			</g>
			<g>
				<g>
					<path fill="#EEA886" d="M113.181,497.78c0,0,3.024,2.016,5.824-0.672l0.226,2.337c0,0-4.78,4.299-6.049-0.32V497.78z"/>
				</g>
			</g>
			<g>
				<g>
					<path fill="#EEA886" d="M130.498,497.392c0,0,1.807,1.63,4.537-0.81l0.35,2.726c0,0-4.65,4.757-5.918,0.138L130.498,497.392z"
						/>
				</g>
			</g>
			<g>
				<g>
					<path fill="#3F74A0" d="M113.181,499.125c0,0-2.488,2.968-2.243,3.456c0.242,0.486,5.67,1.585,6.493,0.425
						c0.823-1.158,1.8-3.561,1.8-3.561S114.483,501.55,113.181,499.125z"/>
				</g>
			</g>
			<g>
				<g>
					<path fill="#3F74A0" d="M129.62,499.063c0,0-2.319,3.269-2.076,3.758c0.244,0.487,5.056,1.266,5.88,0.109
						c0.823-1.16,1.961-3.622,1.961-3.622S130.921,501.49,129.62,499.063z"/>
				</g>
			</g>
			<g>
				<path fill="#FF4D4D" d="M101.289,363.657c0,0,12.723,4.715,31.1-5.672c0,0,0.733,1.497,1.555,3.555
					c0,0-16.752,10.344-32.338,5.28C101.605,366.82,101.079,364.455,101.289,363.657z"/>
			</g>
			<g>
				<path fill="#AD3434" d="M97.621,320.663c-1.464,3.797-1.624,10.679-1.624,10.679s-0.476,1.8-1.239,3.939
					C94.547,325.059,97.621,320.663,97.621,320.663z"/>
			</g>
			<g>
				<g>
					<path fill="#C43B3B" d="M114.439,303.626c-0.675,0-1.274-0.067-1.79-0.166c-2.107-0.403-2.987-1.411-3.038-1.454l0.26-0.988
						c0.011,0.01,1.182,1.065,3.039,1.404c2.493,0.457,5.317-0.224,8.091-1.96l0.415,0.939
						C118.655,303.129,116.27,303.626,114.439,303.626z"/>
				</g>
			</g>
		</g>
		<g>
			<path fill="#EEECF0" d="M146.973,138.32l-24.51,4.596c-1.399,0.262-2.667,0.992-3.597,2.068l-55.62,64.333
				c-2.271,2.627-1.981,6.596,0.644,8.866l23.506,20.323c2.626,2.27,6.596,1.982,8.867-0.645l55.619-64.333
				c0.931-1.075,1.468-2.436,1.526-3.857l1.005-24.919C154.577,140.716,150.945,137.576,146.973,138.32z M150.514,146.885
				c-1.214,1.406-3.338,1.559-4.744,0.344c-1.404-1.215-1.56-3.339-0.344-4.744c1.215-1.405,3.339-1.56,4.745-0.344
				C151.576,143.354,151.73,145.48,150.514,146.885z"/>
			<g>
				<path fill="#78C2FF" d="M99.169,214.205c-0.825,0.954-1.771,1.741-2.839,2.359c-1.07,0.62-2.157,1.007-3.267,1.158l-0.851-3.602
					c0.168,0.035,0.447,0.016,0.835-0.06c0.387-0.076,0.825-0.209,1.311-0.399c0.486-0.19,0.989-0.457,1.504-0.798
					c0.517-0.341,0.991-0.759,1.419-1.255c0.659-0.762,1.001-1.46,1.027-2.095c0.026-0.631-0.21-1.162-0.706-1.592
					c-0.24-0.207-0.515-0.317-0.818-0.324c-0.305-0.008-0.636,0.056-0.996,0.188c-0.36,0.134-0.751,0.323-1.173,0.568
					c-0.425,0.244-0.881,0.522-1.369,0.831c-1.117,0.701-2.108,1.109-2.975,1.226c-0.867,0.116-1.688-0.16-2.463-0.832
					c-0.789-0.679-1.353-1.446-1.695-2.297c-0.342-0.851-0.5-1.726-0.476-2.627c0.024-0.901,0.223-1.794,0.6-2.68
					c0.377-0.885,0.889-1.701,1.538-2.452c0.78-0.902,1.624-1.576,2.531-2.023c0.909-0.448,1.776-0.737,2.6-0.869l0.734,3.467
					c-0.132-0.025-0.359-0.01-0.675,0.05c-0.317,0.059-0.674,0.168-1.067,0.326c-0.392,0.16-0.793,0.374-1.203,0.642
					c-0.41,0.267-0.779,0.593-1.108,0.974c-0.66,0.763-0.989,1.478-0.986,2.144c0,0.668,0.274,1.236,0.818,1.71
					c0.217,0.186,0.451,0.294,0.703,0.323c0.252,0.031,0.533-0.01,0.84-0.122c0.307-0.112,0.644-0.277,1.01-0.495
					c0.365-0.217,0.781-0.478,1.245-0.786c0.581-0.388,1.139-0.71,1.673-0.97c0.535-0.26,1.052-0.427,1.554-0.506
					c0.5-0.079,0.991-0.049,1.472,0.089c0.48,0.138,0.955,0.41,1.425,0.817c0.852,0.735,1.44,1.533,1.765,2.39
					c0.323,0.859,0.45,1.723,0.374,2.591c-0.073,0.869-0.32,1.726-0.743,2.573C100.318,212.697,99.794,213.481,99.169,214.205z"/>
				<path fill="#78C2FF" d="M108.271,203.753c-0.484,0.559-1.02,0.968-1.609,1.224c-0.588,0.257-1.199,0.38-1.831,0.366
					c-0.632-0.014-1.268-0.158-1.908-0.433c-0.639-0.275-1.245-0.66-1.816-1.155c-0.827-0.713-1.488-1.546-1.987-2.5
					c-0.498-0.952-0.816-1.927-0.954-2.923c-0.138-0.996-0.092-1.973,0.136-2.931c0.228-0.957,0.655-1.798,1.281-2.523
					c0.594-0.686,1.278-1.117,2.049-1.292c0.775-0.175,1.524-0.104,2.248,0.212l-1.384-1.865l2.207-2.555l5.73,7.552
					c0.108,0.159,0.206,0.277,0.295,0.354c0.266,0.231,0.537,0.198,0.815-0.097l1.778,2.338c-0.16,0.262-0.301,0.488-0.423,0.683
					c-0.125,0.194-0.24,0.354-0.35,0.48c-0.384,0.444-0.785,0.716-1.2,0.812c-0.416,0.095-0.816-0.023-1.196-0.351
					c-0.152-0.132-0.361-0.379-0.626-0.741c0.22,1.033,0.206,2.016-0.035,2.951C109.249,202.295,108.842,203.092,108.271,203.753z
					 M107.087,200.73c0.187-0.215,0.345-0.482,0.478-0.802c0.132-0.319,0.221-0.659,0.265-1.02c0.046-0.36,0.054-0.729,0.028-1.109
					c-0.029-0.38-0.102-0.743-0.223-1.092l-1.956-2.557c-0.624-0.407-1.279-0.584-1.968-0.536c-0.686,0.05-1.239,0.316-1.656,0.8
					c-0.353,0.407-0.588,0.891-0.708,1.453c-0.12,0.563-0.13,1.139-0.026,1.726c0.102,0.589,0.298,1.159,0.588,1.709
					c0.29,0.55,0.664,1.023,1.122,1.419c0.661,0.573,1.366,0.871,2.12,0.9C105.904,201.652,106.548,201.354,107.087,200.73z"/>
				<path fill="#78C2FF" d="M117.198,193.35c-0.56,0.649-1.137,1.016-1.732,1.1c-0.595,0.085-1.173-0.114-1.732-0.598
					c-0.114-0.098-0.223-0.203-0.326-0.315c-0.103-0.112-0.215-0.24-0.334-0.387l-9.466-12.516l2.192-2.536l8.752,11.53
					c0.054,0.068,0.108,0.133,0.167,0.194c0.058,0.061,0.119,0.119,0.182,0.174c0.522,0.45,1.007,0.414,1.458-0.106
					c0.12-0.139,0.235-0.323,0.344-0.552c0.108-0.227,0.196-0.457,0.262-0.687l1.879,1.756c-0.154,0.512-0.385,1.037-0.698,1.578
					C117.832,192.528,117.517,192.982,117.198,193.35z"/>
				<path fill="#78C2FF" d="M124.044,185.51c-0.549,0.636-1.147,1.113-1.79,1.434c-0.643,0.321-1.307,0.497-1.989,0.528
					c-0.683,0.033-1.362-0.082-2.035-0.343c-0.674-0.26-1.317-0.655-1.927-1.182c-0.825-0.714-1.471-1.556-1.934-2.522
					c-0.463-0.967-0.729-1.973-0.8-3.023c-0.071-1.049,0.061-2.1,0.396-3.155c0.335-1.055,0.887-2.028,1.656-2.917
					c0.935-1.08,1.916-1.735,2.948-1.965c1.032-0.23,1.999,0.046,2.901,0.825c2.148,1.855,1.562,4.704-1.756,8.542
					c-0.197,0.23-0.401,0.466-0.609,0.707c-0.209,0.241-0.441,0.485-0.696,0.729l0.247,0.215c0.673,0.583,1.351,0.902,2.035,0.959
					c0.684,0.058,1.31-0.244,1.881-0.905c0.439-0.507,0.734-1.092,0.883-1.753c0.149-0.659,0.122-1.309-0.079-1.95l2.375-1.477
					c0.161,0.583,0.246,1.2,0.251,1.849c0.005,0.649-0.067,1.29-0.217,1.928c-0.151,0.635-0.372,1.251-0.662,1.843
					C124.831,184.47,124.471,185.015,124.044,185.51z M117.139,176.31c-0.318,0.369-0.548,0.769-0.69,1.202
					c-0.142,0.433-0.204,0.872-0.19,1.318c0.014,0.446,0.092,0.896,0.233,1.35c0.139,0.454,0.331,0.887,0.576,1.297
					c0.188-0.191,0.365-0.383,0.53-0.573c0.164-0.19,0.335-0.388,0.511-0.592c0.527-0.609,0.943-1.154,1.248-1.636
					c0.305-0.481,0.506-0.906,0.605-1.277c0.097-0.37,0.11-0.686,0.037-0.95c-0.073-0.263-0.223-0.493-0.452-0.691
					c-0.37-0.319-0.765-0.418-1.191-0.299C117.93,175.583,117.525,175.865,117.139,176.31z"/>
			</g>
		</g>
		<g>
			<g>
				<path fill="#E6E6E6" d="M150.275,142.535l-0.206-0.788c0.019-0.006,1.902-0.508,4.378-1.912l0.402,0.709
					C152.272,142.005,150.354,142.515,150.275,142.535z"/>
			</g>
			<g>
				<path fill="#E6E6E6" d="M450.333,207.734l-0.773-0.262c1.116-3.288,2.092-6.326,2.99-9.29l0.782,0.235
					C452.43,201.391,451.449,204.438,450.333,207.734z M455.97,188.985l-0.791-0.201c0.833-3.272,1.555-6.471,2.145-9.51
					l0.799,0.156C457.533,182.483,456.806,185.698,455.97,188.985z M459.642,169.748l-0.809-0.096
					c0.391-3.353,0.621-6.618,0.678-9.702l0.817,0.015C460.27,163.077,460.038,166.367,459.642,169.748z M459.103,150.249
					c-0.367-3.334-0.974-6.536-1.814-9.52l0.786-0.221c0.851,3.026,1.468,6.275,1.837,9.652L459.103,150.249z M162.339,134.115
					l-0.643-0.502c1.939-2.483,3.38-5.356,4.285-8.537l0.785,0.222C165.833,128.583,164.343,131.549,162.339,134.115z
					 M453.781,131.724c-1.48-2.879-3.276-5.583-5.334-8.043l0.627-0.524c2.095,2.507,3.923,5.263,5.43,8.194L453.781,131.724z
					 M441.489,116.988c-2.451-1.91-5.194-3.665-8.147-5.214l0.379-0.723c2.998,1.572,5.78,3.353,8.271,5.294L441.489,116.988z
					 M167.975,115.531l-0.816-0.018c0.066-2.939,0.354-6.327,0.833-9.799l0.809,0.11
					C168.326,109.266,168.04,112.622,167.975,115.531z M424.446,107.92c-2.912-1.034-6.05-1.949-9.325-2.72l0.185-0.794
					c3.306,0.778,6.473,1.702,9.413,2.744L424.446,107.92z M405.561,103.394c-3.079-0.452-6.336-0.813-9.677-1.076l0.062-0.812
					c3.362,0.263,6.638,0.627,9.735,1.081L405.561,103.394z M386.14,101.55c-3.365-0.334-6.625-0.745-9.694-1.223l0.127-0.807
					c3.053,0.477,6.297,0.887,9.646,1.219L386.14,101.55z M366.853,98.484c-3.295-0.762-6.461-1.649-9.415-2.634l0.259-0.774
					c2.927,0.977,6.071,1.857,9.34,2.614L366.853,98.484z M170.569,96.237l-0.797-0.184c0.74-3.213,1.627-6.396,2.63-9.458
					l0.775,0.254C172.181,89.888,171.303,93.046,170.569,96.237z M348.348,92.23c-2.988-1.406-5.792-2.954-8.57-4.732l0.44-0.686
					c2.747,1.758,5.52,3.289,8.476,4.679L348.348,92.23z M331.862,81.746c-2.702-2.191-5.245-4.473-7.373-6.413l0.547-0.603
					c2.123,1.933,4.655,4.206,7.34,6.382L331.862,81.746z M176.659,77.756l-0.746-0.329c1.352-3.058,2.855-5.999,4.467-8.744
					l0.704,0.414C179.488,71.814,177.998,74.729,176.659,77.756z M317.281,68.758c-2.743-2.446-5.106-4.434-7.443-6.255l0.499-0.644
					c2.354,1.834,4.732,3.832,7.486,6.292L317.281,68.758z M186.53,61.055l-0.644-0.502c2.051-2.625,4.271-5.071,6.602-7.271
					l0.559,0.593C190.747,56.048,188.554,58.464,186.53,61.055z M301.917,56.888c-2.687-1.718-5.521-3.341-8.42-4.821l0.37-0.727
					c2.923,1.494,5.779,3.128,8.49,4.861L301.917,56.888z M284.665,48.038c-2.889-1.175-5.961-2.291-9.13-3.319l0.253-0.776
					c3.185,1.033,6.276,2.158,9.184,3.34L284.665,48.038z M200.609,47.824l-0.457-0.676c2.711-1.819,5.598-3.422,8.585-4.761
					l0.334,0.743C206.126,44.451,203.278,46.03,200.609,47.824z M266.201,42.004c-2.498-0.65-5.116-1.273-7.784-1.853
					c-0.569-0.124-1.132-0.241-1.694-0.356l0.162-0.8c0.564,0.114,1.134,0.234,1.705,0.358c2.678,0.582,5.308,1.208,7.815,1.861
					L266.201,42.004z M218.198,39.91l-0.209-0.789c3.081-0.816,6.321-1.422,9.636-1.803l0.09,0.809
					C224.444,38.503,221.239,39.103,218.198,39.91z M247.114,38.258c-3.311-0.379-6.577-0.587-9.706-0.617l0.007-0.816
					c3.16,0.031,6.452,0.241,9.79,0.624L247.114,38.258z"/>
			</g>
			<g>
				<path fill="#E6E6E6" d="M445.212,222.052l-0.766-0.283c0.552-1.491,1.116-3.021,1.687-4.59l0.767,0.28
					C446.328,219.027,445.764,220.561,445.212,222.052z"/>
			</g>
		</g>
		<g>
			<path fill="#78C2FF" d="M645.29,223.447l25.772-14.832l24.65-16.176l2.711,4.889l-25.056,14.65l-25.368,16.357L645.29,223.447z
				 M660.807,202.004c-1.509-0.535-2.818-1.29-3.93-2.265c-1.11-0.975-1.984-2.073-2.62-3.293c-0.636-1.22-1.026-2.522-1.164-3.906
				c-0.143-1.385,0.03-2.766,0.518-4.147c0.473-1.336,1.202-2.51,2.191-3.52c0.989-1.009,2.107-1.776,3.365-2.305
				c1.254-0.527,2.619-0.82,4.096-0.881c1.476-0.06,2.967,0.177,4.479,0.711c1.466,0.521,2.767,1.27,3.899,2.254
				c1.133,0.983,2.022,2.074,2.663,3.272c0.644,1.199,1.034,2.502,1.166,3.907c0.133,1.405-0.036,2.777-0.51,4.115
				c-0.488,1.38-1.22,2.564-2.201,3.551c-0.98,0.989-2.101,1.757-3.364,2.305c-1.262,0.549-2.639,0.849-4.138,0.9
				C663.756,202.755,662.276,202.521,660.807,202.004z M662.34,197.67c0.648,0.228,1.294,0.287,1.941,0.175
				c0.645-0.11,1.271-0.338,1.879-0.681c0.606-0.343,1.144-0.806,1.621-1.392c0.473-0.585,0.84-1.243,1.098-1.977
				c0.535-1.51,0.536-2.952,0.005-4.331c-0.532-1.376-1.424-2.287-2.675-2.728c-0.647-0.23-1.292-0.287-1.938-0.177
				c-0.648,0.112-1.275,0.338-1.881,0.681c-0.606,0.344-1.142,0.796-1.606,1.36c-0.468,0.563-0.83,1.212-1.089,1.945
				c-0.535,1.51-0.539,2.965-0.014,4.362C660.204,196.306,661.09,197.227,662.34,197.67z M676.01,238.463
				c-1.512-0.535-2.822-1.288-3.93-2.264c-1.113-0.976-1.99-2.062-2.632-3.259c-0.645-1.198-1.039-2.491-1.178-3.875
				c-0.144-1.384,0.031-2.765,0.521-4.148c0.487-1.378,1.221-2.563,2.203-3.551c0.979-0.987,2.099-1.756,3.362-2.305
				c1.262-0.549,2.632-0.854,4.109-0.912c1.478-0.061,2.969,0.177,4.479,0.711c1.51,0.534,2.822,1.29,3.933,2.264
				c1.111,0.976,1.995,2.078,2.653,3.303c0.656,1.229,1.045,2.53,1.165,3.907c0.118,1.378-0.065,2.756-0.553,4.135
				c-0.488,1.381-1.213,2.569-2.168,3.563c-0.961,0.996-2.078,1.755-3.353,2.272c-1.275,0.521-2.653,0.81-4.131,0.87
				C679.013,239.233,677.519,238.996,676.01,238.463z M677.543,234.128c0.645,0.228,1.291,0.287,1.939,0.177
				c0.644-0.11,1.271-0.339,1.878-0.681c0.606-0.345,1.146-0.798,1.61-1.36c0.464-0.563,0.829-1.211,1.089-1.946
				c0.274-0.775,0.399-1.543,0.378-2.304c-0.022-0.759-0.151-1.46-0.384-2.101c-0.235-0.641-0.584-1.2-1.045-1.68
				c-0.462-0.478-0.995-0.825-1.599-1.038c-0.647-0.229-1.292-0.288-1.939-0.177c-0.647,0.112-1.272,0.34-1.878,0.683
				c-0.608,0.344-1.148,0.808-1.621,1.393c-0.475,0.583-0.842,1.243-1.101,1.976c-0.533,1.509-0.533,2.953-0.002,4.329
				C675.399,232.777,676.291,233.685,677.543,234.128z"/>
		</g>
		<g>
			<path fill="#78C2FF" d="M89.222,38.152c-0.889,0.589-1.815,0.981-2.779,1.181c-0.963,0.198-1.897,0.222-2.8,0.071
				c-0.903-0.152-1.75-0.467-2.542-0.948c-0.791-0.48-1.456-1.127-1.991-1.94c-0.522-0.788-0.852-1.645-0.991-2.575
				c-0.142-0.929-0.1-1.833,0.124-2.711c0.223-0.876,0.615-1.719,1.177-2.528c0.559-0.808,1.284-1.505,2.173-2.094
				c0.864-0.569,1.784-0.959,2.76-1.167c0.977-0.206,1.911-0.241,2.806-0.103c0.894,0.139,1.741,0.456,2.542,0.948
				c0.799,0.494,1.46,1.134,1.981,1.92c0.537,0.814,0.872,1.68,1.003,2.595c0.131,0.918,0.09,1.82-0.124,2.71
				c-0.216,0.891-0.609,1.744-1.183,2.561C90.804,36.889,90.086,37.582,89.222,38.152z M87.534,35.6
				c0.381-0.252,0.673-0.572,0.873-0.958c0.199-0.389,0.33-0.813,0.391-1.274c0.06-0.458,0.031-0.931-0.089-1.418
				c-0.122-0.486-0.324-0.945-0.609-1.377c-0.588-0.889-1.353-1.468-2.299-1.739c-0.945-0.268-1.785-0.161-2.522,0.327
				c-0.382,0.251-0.672,0.572-0.872,0.959c-0.2,0.387-0.33,0.812-0.391,1.272c-0.061,0.461-0.035,0.926,0.077,1.4
				c0.112,0.473,0.311,0.926,0.596,1.358c0.588,0.889,1.358,1.474,2.311,1.757C85.954,36.189,86.8,36.087,87.534,35.6z
				 M94.387,54.995l2.459-19.638l1.293-19.577l3.686,0.521l-2.267,19.181L98.07,55.516L94.387,54.995z M114.681,44.701
				c-0.888,0.589-1.814,0.982-2.779,1.18c-0.962,0.199-1.892,0.229-2.786,0.089c-0.895-0.137-1.74-0.447-2.53-0.928
				c-0.793-0.48-1.455-1.126-1.995-1.94c-0.535-0.812-0.871-1.676-1.003-2.594c-0.129-0.915-0.089-1.819,0.126-2.71
				c0.215-0.89,0.602-1.74,1.163-2.549c0.561-0.808,1.286-1.505,2.175-2.093c0.889-0.589,1.815-0.982,2.78-1.18
				c0.962-0.199,1.903-0.226,2.817-0.083c0.917,0.143,1.764,0.459,2.542,0.948c0.78,0.488,1.438,1.138,1.976,1.951
				c0.537,0.814,0.878,1.675,1.021,2.582c0.145,0.909,0.1,1.806-0.137,2.692c-0.236,0.886-0.633,1.732-1.194,2.54
				C116.296,43.416,115.571,44.114,114.681,44.701z M112.996,42.149c0.38-0.252,0.671-0.571,0.871-0.96
				c0.2-0.387,0.33-0.81,0.391-1.272c0.061-0.458,0.035-0.927-0.077-1.401c-0.112-0.472-0.311-0.924-0.596-1.357
				c-0.302-0.458-0.66-0.832-1.073-1.125c-0.412-0.293-0.835-0.505-1.269-0.638c-0.434-0.133-0.872-0.173-1.31-0.121
				c-0.442,0.055-0.837,0.197-1.194,0.433c-0.38,0.252-0.671,0.572-0.871,0.96c-0.2,0.388-0.332,0.812-0.392,1.272
				c-0.06,0.461-0.031,0.932,0.089,1.419c0.121,0.487,0.324,0.945,0.609,1.377c0.588,0.888,1.353,1.469,2.299,1.738
				C111.418,42.744,112.258,42.636,112.996,42.149z"/>
		</g>
	</g>
</g>
</svg>
